<svg viewBox="0 0 175.11 45.61" xmlns="http://www.w3.org/2000/svg"><path d="m2.09 0h13.92v3.37l-9.4 10.48h9.35v3.39h-14.68v-3.22l9.55-10.65h-8.74z" fill="#e30d29"/><g transform="translate(-7.36 -9.09)"><path d="m43.94 9.09v9.62a9.11 9.11 0 0 1 -1 4.89c-1.86 3-5.69 3.12-6.42 3.12a9.17 9.17 0 0 1 -4-.93c-3.32-1.71-3.32-4.74-3.3-7.08v-9.62h4.35v10.74a4.54 4.54 0 0 0 .31 2.17 3.09 3.09 0 0 0 2.78 1.18c2.93 0 2.93-2 3-3.35v-10.74z" fill="#e30d29"/><path d="m7.36 32.08h5l3.64 5.92a7.75 7.75 0 0 1 .71-1.29l3-4.62h4.89l-6.52 9.09v8.15h-4.25v-8z" fill="#e30d29"/><path d="m29.21 32.08h5.5c2.1 0 5.27.07 7.47 2a8.5 8.5 0 0 1 2.47 6.44 11.65 11.65 0 0 1 -.44 3.33c-1.59 5.32-6.4 5.42-8.21 5.44h-6.79zm4.35 3.64v10.14h1.32c2.29 0 5.47-.18 5.47-5.13a5.53 5.53 0 0 0 -.91-3.47c-1.17-1.57-2.83-1.54-4.15-1.54z" fill="#e30d29"/><path d="m56.93 9.2h4.15c5.38 0 9.29 3 9.29 8.43 0 6-3.6 8.54-9.15 8.54h-4.29zm4.56 15.8c4.51 0 7.51-2.4 7.51-7.11 0-5.11-3.29-7.46-8-7.46h-2.68v14.57z" fill="#1d1d1b"/><path d="m73 22.72c0-3.2 2.86-3.87 4.88-3.94l3.33-.07v-2c0-2.31-1.13-2.76-3.62-2.76a12 12 0 0 0 -3.07.6l-.29-1.11a10.33 10.33 0 0 1 3.88-.69c2.6 0 4.4.88 4.4 3.36v7.69a1.3 1.3 0 0 0 1.25 1.44l-.12 1.08h-.2a2 2 0 0 1 -2.16-1.73 7.11 7.11 0 0 1 -4.77 1.77c-2.23 0-3.51-1.27-3.51-3.64zm8.21.81v-3.77l-3.45.15c-2.31.09-3.46 1.2-3.46 2.64 0 2 1 2.69 2.61 2.69a8.79 8.79 0 0 0 4.28-1.71z" fill="#1d1d1b"/><path d="m88.25 22.64v-8.32h-1.92v-1.25h1.92v-2.69h1.27v2.69h4.13v1.25h-4.11v8.3c0 2.18.58 2.59 2.79 2.59a6.26 6.26 0 0 0 1.84-.38l.34 1.17a7.06 7.06 0 0 1 -2.11.44c-2.4 0-4.15-.12-4.15-3.8z" fill="#1d1d1b"/><path d="m96.21 22.72c0-3.2 2.86-3.87 4.88-3.94l3.33-.07v-2c0-2.31-1.13-2.76-3.62-2.76a12 12 0 0 0 -3.07.6l-.29-1.11a10.35 10.35 0 0 1 3.89-.69c2.59 0 4.39.88 4.39 3.36v7.69a1.3 1.3 0 0 0 1.28 1.44l-.12 1.08h-.19a2 2 0 0 1 -2.16-1.73 7.17 7.17 0 0 1 -4.78 1.77c-2.24 0-3.54-1.27-3.54-3.64zm8.21.81v-3.77l-3.45.15c-2.31.09-3.46 1.2-3.46 2.64 0 2 1 2.69 2.62 2.69a8.79 8.79 0 0 0 4.29-1.71z" fill="#1d1d1b"/><path d="m56.93 32.2h1.41v17h-1.41z" fill="#1d1d1b"/><path d="m63.74 36.07h1.32v1.53c1.35-.88 2.67-1.87 4.66-1.87 3.79 0 4 2.88 4 4.92v8.52h-1.29v-8.17c0-2.4-.29-4.11-3-4.11-1.61 0-3.25 1.18-4.4 1.87v10.41h-1.29z" fill="#1d1d1b"/><path d="m78.91 45.64v-8.32h-1.91v-1.25h1.92v-2.69h1.27v2.69h4.13v1.25h-4.1v8.3c0 2.18.57 2.59 2.78 2.59a6.33 6.33 0 0 0 1.85-.38l.33 1.17a7.14 7.14 0 0 1 -2.12.44c-2.4 0-4.15-.12-4.15-3.8z" fill="#1d1d1b"/><path d="m87.26 42.86c0-5.28 2.5-7.13 5.62-7.13s4.44 2 4.44 6.53v.48h-8.69c.12 4.73 2.23 5.5 5.16 5.5a13 13 0 0 0 3.1-.56l.26 1.16a11.49 11.49 0 0 1 -3.94.62c-3.67 0-5.95-1.63-5.95-6.6zm8.64-1.22c0-3-1-4.88-3.31-4.88s-3.7 1.61-4 4.88z" fill="#1d1d1b"/><path d="m101 31.08h1.32v18.09h-1.32z" fill="#1d1d1b"/><path d="m107.33 31.08h1.32v18.09h-1.32z" fill="#1d1d1b"/><path d="m113 32 1.27-1.3 1.32 1.3-1.32 1.32zm.62 4.08h1.38v13.1h-1.37z" fill="#1d1d1b"/><path d="m120.07 54.29.26-1.25a25.83 25.83 0 0 0 3.29.43c2.31 0 4.13-.46 4.13-3.7v-1.65a4.45 4.45 0 0 1 -3.22 1.24c-2.64 0-5.54-.86-5.54-6.69 0-4.73 2.69-6.94 6-6.94a21 21 0 0 1 4.11.46v14c0 3-1.85 4.51-5 4.51a20.85 20.85 0 0 1 -4.03-.41zm7.66-7.52v-9.6a13.41 13.41 0 0 0 -2.81-.29c-3.41 0-4.61 2.69-4.61 5.86 0 3.86 1.42 5.45 4.32 5.45a4.67 4.67 0 0 0 3.1-1.42z" fill="#1d1d1b"/><path d="m133.1 42.86c0-5.28 2.5-7.13 5.62-7.13s4.44 2 4.44 6.53v.48h-8.69c.12 4.73 2.23 5.5 5.16 5.5a13.12 13.12 0 0 0 3.1-.56l.26 1.16a11.55 11.55 0 0 1 -3.94.62c-3.67 0-5.95-1.63-5.95-6.6zm8.64-1.22c0-3-1-4.88-3.31-4.88s-3.7 1.61-4 4.88z" fill="#1d1d1b"/><path d="m146.88 36.07h1.32v1.53c1.34-.88 2.66-1.87 4.65-1.87 3.8 0 4 2.88 4 4.92v8.52h-1.27v-8.17c0-2.4-.29-4.11-3-4.11-1.61 0-3.24 1.18-4.39 1.87v10.41h-1.32z" fill="#1d1d1b"/><path d="m160.6 42.64c0-4.29 2.31-6.91 5.86-6.91a7.2 7.2 0 0 1 3.41.7l-.46 1.13a6.81 6.81 0 0 0 -3-.68c-2.72 0-4.4 2.19-4.4 5.67 0 3.84 1.3 5.61 5.24 5.61a12.22 12.22 0 0 0 2.44-.33l.24 1.13a11.67 11.67 0 0 1 -2.88.43c-4.45 0-6.45-2.02-6.45-6.75z" fill="#1d1d1b"/><path d="m172.41 42.86c0-5.28 2.5-7.13 5.62-7.13s4.44 2 4.44 6.53v.48h-8.69c.12 4.73 2.23 5.5 5.16 5.5a13 13 0 0 0 3.1-.56l.26 1.16a11.46 11.46 0 0 1 -3.93.62c-3.68 0-5.96-1.63-5.96-6.6zm8.64-1.22c0-3-1-4.88-3.31-4.88-2.13 0-3.7 1.61-4 4.88z" fill="#1d1d1b"/></g></svg>